<mxfile host="Electron" modified="2024-06-08T11:57:33.111Z" agent="Mozilla/5.0 (X11; Linux x86_64) AppleWebKit/537.36 (KHTML, like Gecko) draw.io/21.6.5 Chrome/114.0.5735.243 Electron/25.3.1 Safari/537.36" etag="dwndgB0DVXXiZxkSu0O1" version="21.6.5" type="device">
  <diagram name="Page-1" id="VMu5Um8tGNmLyhONTGwZ">
    <mxGraphModel dx="1972" dy="1702" grid="1" gridSize="10" guides="1" tooltips="1" connect="1" arrows="1" fold="1" page="0" pageScale="1" pageWidth="827" pageHeight="1169" math="0" shadow="0">
      <root>
        <mxCell id="0" />
        <mxCell id="1" parent="0" />
        <mxCell id="tY2yVLHzIpJXAKx0_EAQ-1" value="typedef" style="rounded=0;whiteSpace=wrap;html=1;fontFamily=Courier New;fontStyle=1;fillColor=#d5e8d4;strokeColor=#82b366;" parent="1" vertex="1">
          <mxGeometry x="320" y="40" width="80" height="40" as="geometry" />
        </mxCell>
        <mxCell id="pt_r6s6wknBIZJEBHZ8T-38" style="edgeStyle=orthogonalEdgeStyle;curved=1;rounded=0;orthogonalLoop=1;jettySize=auto;html=1;entryX=0.5;entryY=1;entryDx=0;entryDy=0;strokeColor=#CDA2BE;" parent="1" source="tY2yVLHzIpJXAKx0_EAQ-2" target="pt_r6s6wknBIZJEBHZ8T-2" edge="1">
          <mxGeometry relative="1" as="geometry" />
        </mxCell>
        <mxCell id="tY2yVLHzIpJXAKx0_EAQ-2" value="TYPEDEF" style="rounded=0;whiteSpace=wrap;html=1;fontFamily=Courier New;fontStyle=1;fillColor=#dae8fc;strokeColor=#6c8ebf;" parent="1" vertex="1">
          <mxGeometry x="400" y="40" width="80" height="40" as="geometry" />
        </mxCell>
        <mxCell id="tY2yVLHzIpJXAKx0_EAQ-13" style="edgeStyle=orthogonalEdgeStyle;rounded=0;orthogonalLoop=1;jettySize=auto;html=1;curved=1;strokeWidth=3;strokeColor=#70CC80;exitX=0.5;exitY=1;exitDx=0;exitDy=0;entryX=0.5;entryY=0;entryDx=0;entryDy=0;" parent="1" source="tY2yVLHzIpJXAKx0_EAQ-3" target="tY2yVLHzIpJXAKx0_EAQ-7" edge="1">
          <mxGeometry relative="1" as="geometry">
            <Array as="points">
              <mxPoint x="540" y="100" />
              <mxPoint x="340" y="100" />
            </Array>
          </mxGeometry>
        </mxCell>
        <mxCell id="tY2yVLHzIpJXAKx0_EAQ-3" value="user_type" style="rounded=0;whiteSpace=wrap;html=1;fontFamily=Courier New;fontStyle=1" parent="1" vertex="1">
          <mxGeometry x="480" y="40" width="120" height="40" as="geometry" />
        </mxCell>
        <mxCell id="pt_r6s6wknBIZJEBHZ8T-28" style="edgeStyle=orthogonalEdgeStyle;curved=1;rounded=0;orthogonalLoop=1;jettySize=auto;html=1;entryX=0.5;entryY=1;entryDx=0;entryDy=0;strokeColor=#CDA2BE;" parent="1" source="tY2yVLHzIpJXAKx0_EAQ-4" target="pt_r6s6wknBIZJEBHZ8T-8" edge="1">
          <mxGeometry relative="1" as="geometry">
            <Array as="points">
              <mxPoint x="620" />
              <mxPoint x="820" />
            </Array>
          </mxGeometry>
        </mxCell>
        <mxCell id="tY2yVLHzIpJXAKx0_EAQ-4" value="{" style="rounded=0;whiteSpace=wrap;html=1;fontFamily=Courier New;fontStyle=1;fillColor=#dae8fc;strokeColor=#6c8ebf;" parent="1" vertex="1">
          <mxGeometry x="600" y="40" width="40" height="40" as="geometry" />
        </mxCell>
        <mxCell id="tY2yVLHzIpJXAKx0_EAQ-35" style="edgeStyle=orthogonalEdgeStyle;curved=1;rounded=0;orthogonalLoop=1;jettySize=auto;html=1;entryX=0.5;entryY=0;entryDx=0;entryDy=0;strokeWidth=3;strokeColor=#70CC80;exitX=0.5;exitY=1;exitDx=0;exitDy=0;" parent="1" source="tY2yVLHzIpJXAKx0_EAQ-5" target="tY2yVLHzIpJXAKx0_EAQ-21" edge="1">
          <mxGeometry relative="1" as="geometry">
            <Array as="points">
              <mxPoint x="700" y="230" />
              <mxPoint x="700" y="230" />
            </Array>
          </mxGeometry>
        </mxCell>
        <mxCell id="tY2yVLHzIpJXAKx0_EAQ-5" value="type_body" style="rounded=0;whiteSpace=wrap;html=1;fontFamily=Courier New;fontStyle=1" parent="1" vertex="1">
          <mxGeometry x="640" y="40" width="120" height="40" as="geometry" />
        </mxCell>
        <mxCell id="pt_r6s6wknBIZJEBHZ8T-29" style="edgeStyle=orthogonalEdgeStyle;curved=1;rounded=0;orthogonalLoop=1;jettySize=auto;html=1;entryX=0.5;entryY=1;entryDx=0;entryDy=0;strokeColor=#CDA2BE;" parent="1" source="tY2yVLHzIpJXAKx0_EAQ-6" target="pt_r6s6wknBIZJEBHZ8T-21" edge="1">
          <mxGeometry relative="1" as="geometry" />
        </mxCell>
        <mxCell id="tY2yVLHzIpJXAKx0_EAQ-6" value="}" style="rounded=0;whiteSpace=wrap;html=1;fontFamily=Courier New;fontStyle=1;fillColor=#dae8fc;strokeColor=#6c8ebf;" parent="1" vertex="1">
          <mxGeometry x="760" y="40" width="40" height="40" as="geometry" />
        </mxCell>
        <mxCell id="tY2yVLHzIpJXAKx0_EAQ-7" value="user_type" style="rounded=0;whiteSpace=wrap;html=1;fontFamily=Courier New;fontStyle=1;fillColor=#d5e8d4;strokeColor=#82b366;" parent="1" vertex="1">
          <mxGeometry x="280" y="140" width="120" height="40" as="geometry" />
        </mxCell>
        <mxCell id="tY2yVLHzIpJXAKx0_EAQ-8" value="symbol" style="rounded=0;whiteSpace=wrap;html=1;fontFamily=Courier New;fontStyle=1" parent="1" vertex="1">
          <mxGeometry x="400" y="140" width="80" height="40" as="geometry" />
        </mxCell>
        <mxCell id="pt_r6s6wknBIZJEBHZ8T-22" style="edgeStyle=orthogonalEdgeStyle;curved=1;rounded=0;orthogonalLoop=1;jettySize=auto;html=1;entryX=0.5;entryY=1;entryDx=0;entryDy=0;fontColor=#CDA2BE;strokeColor=#CDA2BE;" parent="1" target="pt_r6s6wknBIZJEBHZ8T-3" edge="1">
          <mxGeometry relative="1" as="geometry">
            <mxPoint x="440" y="140" as="sourcePoint" />
            <Array as="points">
              <mxPoint x="440" y="10" />
              <mxPoint x="600" y="10" />
            </Array>
          </mxGeometry>
        </mxCell>
        <mxCell id="tY2yVLHzIpJXAKx0_EAQ-9" value="symbol" style="rounded=0;whiteSpace=wrap;html=1;fontFamily=Courier New;fontStyle=1" parent="1" vertex="1">
          <mxGeometry x="400" y="180" width="80" height="40" as="geometry" />
        </mxCell>
        <mxCell id="pt_r6s6wknBIZJEBHZ8T-24" style="edgeStyle=orthogonalEdgeStyle;curved=1;rounded=0;orthogonalLoop=1;jettySize=auto;html=1;entryX=0.5;entryY=1;entryDx=0;entryDy=0;strokeColor=#CDA2BE;" parent="1" source="tY2yVLHzIpJXAKx0_EAQ-10" target="pt_r6s6wknBIZJEBHZ8T-4" edge="1">
          <mxGeometry relative="1" as="geometry">
            <Array as="points">
              <mxPoint x="510" y="100" />
              <mxPoint x="660" y="100" />
            </Array>
          </mxGeometry>
        </mxCell>
        <mxCell id="tY2yVLHzIpJXAKx0_EAQ-10" value="(" style="rounded=0;whiteSpace=wrap;html=1;fontFamily=Courier New;fontStyle=1;fillColor=#dae8fc;strokeColor=#6c8ebf;" parent="1" vertex="1">
          <mxGeometry x="480" y="180" width="40" height="40" as="geometry" />
        </mxCell>
        <mxCell id="tY2yVLHzIpJXAKx0_EAQ-19" style="edgeStyle=orthogonalEdgeStyle;curved=1;rounded=0;orthogonalLoop=1;jettySize=auto;html=1;strokeWidth=3;strokeColor=#70CC80;entryX=0.5;entryY=0;entryDx=0;entryDy=0;" parent="1" source="tY2yVLHzIpJXAKx0_EAQ-11" target="tY2yVLHzIpJXAKx0_EAQ-14" edge="1">
          <mxGeometry relative="1" as="geometry">
            <Array as="points">
              <mxPoint x="580" y="240" />
              <mxPoint x="340" y="240" />
            </Array>
          </mxGeometry>
        </mxCell>
        <mxCell id="tY2yVLHzIpJXAKx0_EAQ-11" value="type_symbols" style="rounded=0;whiteSpace=wrap;html=1;fontFamily=Courier New;fontStyle=1" parent="1" vertex="1">
          <mxGeometry x="520" y="180" width="120" height="40" as="geometry" />
        </mxCell>
        <mxCell id="pt_r6s6wknBIZJEBHZ8T-25" style="edgeStyle=orthogonalEdgeStyle;curved=1;rounded=0;orthogonalLoop=1;jettySize=auto;html=1;entryX=0.5;entryY=1;entryDx=0;entryDy=0;strokeColor=#CDA2BE;" parent="1" source="tY2yVLHzIpJXAKx0_EAQ-12" target="pt_r6s6wknBIZJEBHZ8T-6" edge="1">
          <mxGeometry relative="1" as="geometry" />
        </mxCell>
        <mxCell id="tY2yVLHzIpJXAKx0_EAQ-12" value=")" style="rounded=0;whiteSpace=wrap;html=1;fontFamily=Courier New;fontStyle=1;fillColor=#dae8fc;strokeColor=#6c8ebf;" parent="1" vertex="1">
          <mxGeometry x="640" y="180" width="40" height="40" as="geometry" />
        </mxCell>
        <mxCell id="tY2yVLHzIpJXAKx0_EAQ-14" value="type_symbols" style="rounded=0;whiteSpace=wrap;html=1;fontFamily=Courier New;fontStyle=1;fillColor=#d5e8d4;strokeColor=#82b366;" parent="1" vertex="1">
          <mxGeometry x="280" y="280" width="120" height="40" as="geometry" />
        </mxCell>
        <mxCell id="pt_r6s6wknBIZJEBHZ8T-23" style="edgeStyle=orthogonalEdgeStyle;curved=1;rounded=0;orthogonalLoop=1;jettySize=auto;html=1;strokeColor=#CDA2BE;" parent="1" source="tY2yVLHzIpJXAKx0_EAQ-15" target="pt_r6s6wknBIZJEBHZ8T-5" edge="1">
          <mxGeometry relative="1" as="geometry" />
        </mxCell>
        <mxCell id="tY2yVLHzIpJXAKx0_EAQ-15" value="#type_symbol" style="rounded=0;whiteSpace=wrap;html=1;fontFamily=Courier New;fontStyle=1;fillColor=#dae8fc;strokeColor=#6c8ebf;" parent="1" vertex="1">
          <mxGeometry x="400" y="280" width="120" height="40" as="geometry" />
        </mxCell>
        <mxCell id="tY2yVLHzIpJXAKx0_EAQ-16" value="#type_symbol" style="rounded=0;whiteSpace=wrap;html=1;fontFamily=Courier New;fontStyle=1;fillColor=#dae8fc;strokeColor=#6c8ebf;" parent="1" vertex="1">
          <mxGeometry x="400" y="320" width="120" height="40" as="geometry" />
        </mxCell>
        <mxCell id="tY2yVLHzIpJXAKx0_EAQ-17" value="," style="rounded=0;whiteSpace=wrap;html=1;fontFamily=Courier New;fontStyle=1;fillColor=#dae8fc;strokeColor=#6c8ebf;" parent="1" vertex="1">
          <mxGeometry x="520" y="320" width="40" height="40" as="geometry" />
        </mxCell>
        <mxCell id="tY2yVLHzIpJXAKx0_EAQ-20" style="edgeStyle=orthogonalEdgeStyle;curved=1;rounded=0;orthogonalLoop=1;jettySize=auto;html=1;entryX=0.5;entryY=1;entryDx=0;entryDy=0;strokeWidth=3;strokeColor=#70CC80;" parent="1" source="tY2yVLHzIpJXAKx0_EAQ-18" target="tY2yVLHzIpJXAKx0_EAQ-14" edge="1">
          <mxGeometry relative="1" as="geometry">
            <Array as="points">
              <mxPoint x="620" y="400" />
              <mxPoint x="340" y="400" />
            </Array>
          </mxGeometry>
        </mxCell>
        <mxCell id="tY2yVLHzIpJXAKx0_EAQ-18" value="type_symbols" style="rounded=0;whiteSpace=wrap;html=1;fontFamily=Courier New;fontStyle=1" parent="1" vertex="1">
          <mxGeometry x="560" y="320" width="120" height="40" as="geometry" />
        </mxCell>
        <mxCell id="tY2yVLHzIpJXAKx0_EAQ-21" value="type_body" style="rounded=0;whiteSpace=wrap;html=1;fontFamily=Courier New;fontStyle=1;fillColor=#d5e8d4;strokeColor=#82b366;" parent="1" vertex="1">
          <mxGeometry x="640" y="520" width="120" height="40" as="geometry" />
        </mxCell>
        <mxCell id="tY2yVLHzIpJXAKx0_EAQ-31" style="edgeStyle=orthogonalEdgeStyle;curved=1;rounded=0;orthogonalLoop=1;jettySize=auto;html=1;entryX=0.5;entryY=1;entryDx=0;entryDy=0;strokeWidth=3;strokeColor=#70CC80;" parent="1" source="tY2yVLHzIpJXAKx0_EAQ-22" target="tY2yVLHzIpJXAKx0_EAQ-30" edge="1">
          <mxGeometry relative="1" as="geometry" />
        </mxCell>
        <mxCell id="tY2yVLHzIpJXAKx0_EAQ-22" value="type_constructor" style="rounded=0;whiteSpace=wrap;html=1;fontFamily=Courier New;fontStyle=1" parent="1" vertex="1">
          <mxGeometry x="760" y="520" width="160" height="40" as="geometry" />
        </mxCell>
        <mxCell id="tY2yVLHzIpJXAKx0_EAQ-23" value="type_constructor" style="rounded=0;whiteSpace=wrap;html=1;fontFamily=Courier New;fontStyle=1" parent="1" vertex="1">
          <mxGeometry x="760" y="560" width="160" height="40" as="geometry" />
        </mxCell>
        <mxCell id="tY2yVLHzIpJXAKx0_EAQ-24" value="|" style="rounded=0;whiteSpace=wrap;html=1;fontFamily=Courier New;fontStyle=1;fillColor=#dae8fc;strokeColor=#6c8ebf;" parent="1" vertex="1">
          <mxGeometry x="920" y="560" width="40" height="40" as="geometry" />
        </mxCell>
        <mxCell id="tY2yVLHzIpJXAKx0_EAQ-29" style="edgeStyle=orthogonalEdgeStyle;curved=1;rounded=0;orthogonalLoop=1;jettySize=auto;html=1;entryX=0.5;entryY=1;entryDx=0;entryDy=0;strokeWidth=3;strokeColor=#70CC80;" parent="1" source="tY2yVLHzIpJXAKx0_EAQ-25" target="tY2yVLHzIpJXAKx0_EAQ-21" edge="1">
          <mxGeometry relative="1" as="geometry">
            <Array as="points">
              <mxPoint x="1020" y="640" />
              <mxPoint x="700" y="640" />
            </Array>
          </mxGeometry>
        </mxCell>
        <mxCell id="tY2yVLHzIpJXAKx0_EAQ-25" value="type_body" style="rounded=0;whiteSpace=wrap;html=1;fontFamily=Courier New;fontStyle=1" parent="1" vertex="1">
          <mxGeometry x="960" y="560" width="120" height="40" as="geometry" />
        </mxCell>
        <mxCell id="tY2yVLHzIpJXAKx0_EAQ-30" value="type_constructor" style="rounded=0;whiteSpace=wrap;html=1;fontFamily=Courier New;fontStyle=1;fillColor=#d5e8d4;strokeColor=#82b366;" parent="1" vertex="1">
          <mxGeometry x="760" y="400" width="160" height="40" as="geometry" />
        </mxCell>
        <mxCell id="pt_r6s6wknBIZJEBHZ8T-26" style="edgeStyle=orthogonalEdgeStyle;curved=1;rounded=0;orthogonalLoop=1;jettySize=auto;html=1;entryX=0.5;entryY=1;entryDx=0;entryDy=0;strokeColor=#CDA2BE;" parent="1" source="tY2yVLHzIpJXAKx0_EAQ-32" target="pt_r6s6wknBIZJEBHZ8T-9" edge="1">
          <mxGeometry relative="1" as="geometry" />
        </mxCell>
        <mxCell id="tY2yVLHzIpJXAKx0_EAQ-32" value="symbol" style="rounded=0;whiteSpace=wrap;html=1;fontFamily=Courier New;fontStyle=1;fillColor=#dae8fc;strokeColor=#6c8ebf;" parent="1" vertex="1">
          <mxGeometry x="920" y="400" width="80" height="40" as="geometry" />
        </mxCell>
        <mxCell id="tY2yVLHzIpJXAKx0_EAQ-33" value="symbol" style="rounded=0;whiteSpace=wrap;html=1;fontFamily=Courier New;fontStyle=1;fillColor=#dae8fc;strokeColor=#6c8ebf;" parent="1" vertex="1">
          <mxGeometry x="920" y="440" width="80" height="40" as="geometry" />
        </mxCell>
        <mxCell id="pt_r6s6wknBIZJEBHZ8T-31" style="edgeStyle=orthogonalEdgeStyle;curved=1;rounded=0;orthogonalLoop=1;jettySize=auto;html=1;entryX=0.5;entryY=1;entryDx=0;entryDy=0;strokeColor=#CDA2BE;" parent="1" source="tY2yVLHzIpJXAKx0_EAQ-34" target="pt_r6s6wknBIZJEBHZ8T-10" edge="1">
          <mxGeometry relative="1" as="geometry">
            <Array as="points">
              <mxPoint x="1020" y="100" />
              <mxPoint x="940" y="100" />
            </Array>
          </mxGeometry>
        </mxCell>
        <mxCell id="tY2yVLHzIpJXAKx0_EAQ-34" value="(" style="rounded=0;whiteSpace=wrap;html=1;fontFamily=Courier New;fontStyle=1;fillColor=#dae8fc;strokeColor=#6c8ebf;" parent="1" vertex="1">
          <mxGeometry x="1000" y="440" width="40" height="40" as="geometry" />
        </mxCell>
        <mxCell id="tY2yVLHzIpJXAKx0_EAQ-44" style="edgeStyle=orthogonalEdgeStyle;curved=1;rounded=0;orthogonalLoop=1;jettySize=auto;html=1;strokeWidth=3;strokeColor=#70CC80;" parent="1" source="tY2yVLHzIpJXAKx0_EAQ-36" target="tY2yVLHzIpJXAKx0_EAQ-38" edge="1">
          <mxGeometry relative="1" as="geometry">
            <Array as="points">
              <mxPoint x="1100" y="240" />
              <mxPoint x="1100" y="240" />
            </Array>
          </mxGeometry>
        </mxCell>
        <mxCell id="tY2yVLHzIpJXAKx0_EAQ-36" value="type_list" style="rounded=0;whiteSpace=wrap;html=1;fontFamily=Courier New;fontStyle=1" parent="1" vertex="1">
          <mxGeometry x="1040" y="440" width="120" height="40" as="geometry" />
        </mxCell>
        <mxCell id="tY2yVLHzIpJXAKx0_EAQ-37" value=")" style="rounded=0;whiteSpace=wrap;html=1;fontFamily=Courier New;fontStyle=1;fillColor=#dae8fc;strokeColor=#6c8ebf;" parent="1" vertex="1">
          <mxGeometry x="1160" y="440" width="40" height="40" as="geometry" />
        </mxCell>
        <mxCell id="tY2yVLHzIpJXAKx0_EAQ-38" value="type_list" style="rounded=0;whiteSpace=wrap;html=1;fontFamily=Courier New;fontStyle=1;fillColor=#d5e8d4;strokeColor=#82b366;" parent="1" vertex="1">
          <mxGeometry x="1040" y="120" width="120" height="40" as="geometry" />
        </mxCell>
        <mxCell id="tY2yVLHzIpJXAKx0_EAQ-39" value="type" style="rounded=0;whiteSpace=wrap;html=1;fontFamily=Courier New;fontStyle=1" parent="1" vertex="1">
          <mxGeometry x="1160" y="120" width="80" height="40" as="geometry" />
        </mxCell>
        <mxCell id="tY2yVLHzIpJXAKx0_EAQ-52" style="edgeStyle=orthogonalEdgeStyle;curved=1;rounded=0;orthogonalLoop=1;jettySize=auto;html=1;strokeWidth=3;strokeColor=#70CC80;" parent="1" source="tY2yVLHzIpJXAKx0_EAQ-40" target="tY2yVLHzIpJXAKx0_EAQ-45" edge="1">
          <mxGeometry relative="1" as="geometry" />
        </mxCell>
        <mxCell id="tY2yVLHzIpJXAKx0_EAQ-40" value="type" style="rounded=0;whiteSpace=wrap;html=1;fontFamily=Courier New;fontStyle=1" parent="1" vertex="1">
          <mxGeometry x="1160" y="160" width="80" height="40" as="geometry" />
        </mxCell>
        <mxCell id="pt_r6s6wknBIZJEBHZ8T-30" style="edgeStyle=orthogonalEdgeStyle;curved=1;rounded=0;orthogonalLoop=1;jettySize=auto;html=1;entryX=0.5;entryY=1;entryDx=0;entryDy=0;strokeColor=#CDA2BE;" parent="1" source="tY2yVLHzIpJXAKx0_EAQ-41" target="pt_r6s6wknBIZJEBHZ8T-12" edge="1">
          <mxGeometry relative="1" as="geometry">
            <Array as="points">
              <mxPoint x="1260" y="20" />
              <mxPoint x="1020" y="20" />
            </Array>
          </mxGeometry>
        </mxCell>
        <mxCell id="tY2yVLHzIpJXAKx0_EAQ-41" value="," style="rounded=0;whiteSpace=wrap;html=1;fontFamily=Courier New;fontStyle=1;fillColor=#dae8fc;strokeColor=#6c8ebf;" parent="1" vertex="1">
          <mxGeometry x="1240" y="160" width="40" height="40" as="geometry" />
        </mxCell>
        <mxCell id="tY2yVLHzIpJXAKx0_EAQ-43" style="edgeStyle=orthogonalEdgeStyle;curved=1;rounded=0;orthogonalLoop=1;jettySize=auto;html=1;entryX=0.5;entryY=0;entryDx=0;entryDy=0;strokeWidth=3;strokeColor=#70CC80;" parent="1" source="tY2yVLHzIpJXAKx0_EAQ-42" target="tY2yVLHzIpJXAKx0_EAQ-38" edge="1">
          <mxGeometry relative="1" as="geometry">
            <Array as="points">
              <mxPoint x="1340" y="80" />
              <mxPoint x="1100" y="80" />
            </Array>
          </mxGeometry>
        </mxCell>
        <mxCell id="tY2yVLHzIpJXAKx0_EAQ-42" value="type_list" style="rounded=0;whiteSpace=wrap;html=1;fontFamily=Courier New;fontStyle=1" parent="1" vertex="1">
          <mxGeometry x="1280" y="160" width="120" height="40" as="geometry" />
        </mxCell>
        <mxCell id="tY2yVLHzIpJXAKx0_EAQ-47" value="type_clause" style="rounded=0;whiteSpace=wrap;html=1;fontFamily=Courier New;fontStyle=1" parent="1" vertex="1">
          <mxGeometry x="1280" y="280" width="120" height="40" as="geometry" />
        </mxCell>
        <mxCell id="tY2yVLHzIpJXAKx0_EAQ-59" style="edgeStyle=orthogonalEdgeStyle;curved=1;rounded=0;orthogonalLoop=1;jettySize=auto;html=1;entryX=0.5;entryY=0;entryDx=0;entryDy=0;shadow=0;strokeWidth=3;strokeColor=#70CC80;" parent="1" source="tY2yVLHzIpJXAKx0_EAQ-48" target="tY2yVLHzIpJXAKx0_EAQ-53" edge="1">
          <mxGeometry relative="1" as="geometry" />
        </mxCell>
        <mxCell id="tY2yVLHzIpJXAKx0_EAQ-48" value="type_clause" style="rounded=0;whiteSpace=wrap;html=1;fontFamily=Courier New;fontStyle=1" parent="1" vertex="1">
          <mxGeometry x="1280" y="320" width="120" height="40" as="geometry" />
        </mxCell>
        <mxCell id="tY2yVLHzIpJXAKx0_EAQ-49" value="-&amp;gt;" style="rounded=0;whiteSpace=wrap;html=1;fontFamily=Courier New;fontStyle=1;fillColor=#dae8fc;strokeColor=#6c8ebf;" parent="1" vertex="1">
          <mxGeometry x="1400" y="320" width="40" height="40" as="geometry" />
        </mxCell>
        <mxCell id="tY2yVLHzIpJXAKx0_EAQ-51" style="edgeStyle=orthogonalEdgeStyle;curved=1;rounded=0;orthogonalLoop=1;jettySize=auto;html=1;entryX=0.5;entryY=1;entryDx=0;entryDy=0;strokeWidth=3;strokeColor=#70CC80;exitX=0.5;exitY=1;exitDx=0;exitDy=0;" parent="1" source="tY2yVLHzIpJXAKx0_EAQ-50" target="tY2yVLHzIpJXAKx0_EAQ-45" edge="1">
          <mxGeometry relative="1" as="geometry">
            <Array as="points">
              <mxPoint x="1480" y="400" />
              <mxPoint x="1200" y="400" />
            </Array>
          </mxGeometry>
        </mxCell>
        <mxCell id="tY2yVLHzIpJXAKx0_EAQ-50" value="type" style="rounded=0;whiteSpace=wrap;html=1;fontFamily=Courier New;fontStyle=1" parent="1" vertex="1">
          <mxGeometry x="1440" y="320" width="80" height="40" as="geometry" />
        </mxCell>
        <mxCell id="tY2yVLHzIpJXAKx0_EAQ-54" value="KW_INT" style="rounded=0;whiteSpace=wrap;html=1;fontFamily=Courier New;fontStyle=1;fillColor=#dae8fc;strokeColor=#6c8ebf;" parent="1" vertex="1">
          <mxGeometry x="1400" y="520" width="120" height="40" as="geometry" />
        </mxCell>
        <mxCell id="tY2yVLHzIpJXAKx0_EAQ-55" value="KW_CHAR" style="rounded=0;whiteSpace=wrap;html=1;fontFamily=Courier New;fontStyle=1;fillColor=#dae8fc;strokeColor=#6c8ebf;" parent="1" vertex="1">
          <mxGeometry x="1400" y="560" width="120" height="40" as="geometry" />
        </mxCell>
        <mxCell id="pt_r6s6wknBIZJEBHZ8T-27" style="edgeStyle=orthogonalEdgeStyle;curved=1;rounded=0;orthogonalLoop=1;jettySize=auto;html=1;entryX=0.5;entryY=1;entryDx=0;entryDy=0;strokeColor=#CDA2BE;" parent="1" source="tY2yVLHzIpJXAKx0_EAQ-56" target="pt_r6s6wknBIZJEBHZ8T-11" edge="1">
          <mxGeometry relative="1" as="geometry" />
        </mxCell>
        <mxCell id="tY2yVLHzIpJXAKx0_EAQ-56" value="#type_symbol" style="rounded=0;whiteSpace=wrap;html=1;fontFamily=Courier New;fontStyle=1;fillColor=#dae8fc;strokeColor=#6c8ebf;" parent="1" vertex="1">
          <mxGeometry x="1400" y="600" width="120" height="40" as="geometry" />
        </mxCell>
        <mxCell id="tY2yVLHzIpJXAKx0_EAQ-64" style="edgeStyle=orthogonalEdgeStyle;curved=1;rounded=0;orthogonalLoop=1;jettySize=auto;html=1;strokeWidth=3;strokeColor=#70CC80;exitX=0;exitY=0.5;exitDx=0;exitDy=0;" parent="1" source="tY2yVLHzIpJXAKx0_EAQ-58" target="tY2yVLHzIpJXAKx0_EAQ-60" edge="1">
          <mxGeometry relative="1" as="geometry" />
        </mxCell>
        <mxCell id="tY2yVLHzIpJXAKx0_EAQ-72" style="edgeStyle=orthogonalEdgeStyle;curved=1;rounded=0;orthogonalLoop=1;jettySize=auto;html=1;entryX=0.5;entryY=0;entryDx=0;entryDy=0;strokeWidth=3;strokeColor=#70CC80;" parent="1" source="tY2yVLHzIpJXAKx0_EAQ-57" target="tY2yVLHzIpJXAKx0_EAQ-66" edge="1">
          <mxGeometry relative="1" as="geometry" />
        </mxCell>
        <mxCell id="tY2yVLHzIpJXAKx0_EAQ-57" value="type_function" style="rounded=0;whiteSpace=wrap;html=1;fontFamily=Courier New;fontStyle=1" parent="1" vertex="1">
          <mxGeometry x="1400" y="640" width="120" height="40" as="geometry" />
        </mxCell>
        <mxCell id="tY2yVLHzIpJXAKx0_EAQ-58" value="type_tuple" style="rounded=0;whiteSpace=wrap;html=1;fontFamily=Courier New;fontStyle=1" parent="1" vertex="1">
          <mxGeometry x="1400" y="680" width="120" height="40" as="geometry" />
        </mxCell>
        <mxCell id="tY2yVLHzIpJXAKx0_EAQ-60" value="type_tuple" style="rounded=0;whiteSpace=wrap;html=1;fontFamily=Courier New;fontStyle=1;fillColor=#d5e8d4;strokeColor=#82b366;" parent="1" vertex="1">
          <mxGeometry x="960" y="760" width="120" height="40" as="geometry" />
        </mxCell>
        <mxCell id="tY2yVLHzIpJXAKx0_EAQ-61" value="(" style="rounded=0;whiteSpace=wrap;html=1;fontFamily=Courier New;fontStyle=1;fillColor=#dae8fc;strokeColor=#6c8ebf;" parent="1" vertex="1">
          <mxGeometry x="1120" y="760" width="40" height="40" as="geometry" />
        </mxCell>
        <mxCell id="tY2yVLHzIpJXAKx0_EAQ-65" style="edgeStyle=orthogonalEdgeStyle;curved=1;rounded=0;orthogonalLoop=1;jettySize=auto;html=1;entryX=0.5;entryY=0;entryDx=0;entryDy=0;strokeWidth=3;strokeColor=#70CC80;exitX=0.5;exitY=1;exitDx=0;exitDy=0;" parent="1" source="tY2yVLHzIpJXAKx0_EAQ-62" target="tY2yVLHzIpJXAKx0_EAQ-38" edge="1">
          <mxGeometry relative="1" as="geometry">
            <Array as="points">
              <mxPoint x="1220" y="870" />
              <mxPoint x="1560" y="870" />
              <mxPoint x="1560" y="40" />
              <mxPoint x="1100" y="40" />
            </Array>
          </mxGeometry>
        </mxCell>
        <mxCell id="tY2yVLHzIpJXAKx0_EAQ-62" value="type_list" style="rounded=0;whiteSpace=wrap;html=1;fontFamily=Courier New;fontStyle=1" parent="1" vertex="1">
          <mxGeometry x="1160" y="760" width="120" height="40" as="geometry" />
        </mxCell>
        <mxCell id="tY2yVLHzIpJXAKx0_EAQ-63" value=")" style="rounded=0;whiteSpace=wrap;html=1;fontFamily=Courier New;fontStyle=1;fillColor=#dae8fc;strokeColor=#6c8ebf;" parent="1" vertex="1">
          <mxGeometry x="1280" y="760" width="40" height="40" as="geometry" />
        </mxCell>
        <mxCell id="tY2yVLHzIpJXAKx0_EAQ-66" value="type_function" style="rounded=0;whiteSpace=wrap;html=1;fontFamily=Courier New;fontStyle=1;fillColor=#d5e8d4;strokeColor=#82b366;" parent="1" vertex="1">
          <mxGeometry x="680" y="840" width="160" height="40" as="geometry" />
        </mxCell>
        <mxCell id="pt_r6s6wknBIZJEBHZ8T-37" style="edgeStyle=orthogonalEdgeStyle;curved=1;rounded=0;orthogonalLoop=1;jettySize=auto;html=1;entryX=0.5;entryY=1;entryDx=0;entryDy=0;strokeColor=#CDA2BE;" parent="1" source="tY2yVLHzIpJXAKx0_EAQ-53" target="pt_r6s6wknBIZJEBHZ8T-19" edge="1">
          <mxGeometry relative="1" as="geometry">
            <Array as="points">
              <mxPoint x="1370" y="240" />
              <mxPoint x="1360" y="240" />
            </Array>
          </mxGeometry>
        </mxCell>
        <mxCell id="tY2yVLHzIpJXAKx0_EAQ-67" value="symbol" style="rounded=0;whiteSpace=wrap;html=1;fontFamily=Courier New;fontStyle=1;fillColor=#dae8fc;strokeColor=#6c8ebf;" parent="1" vertex="1">
          <mxGeometry x="840" y="840" width="80" height="40" as="geometry" />
        </mxCell>
        <mxCell id="tY2yVLHzIpJXAKx0_EAQ-68" value="symbol" style="rounded=0;whiteSpace=wrap;html=1;fontFamily=Courier New;fontStyle=1;fillColor=#dae8fc;strokeColor=#6c8ebf;" parent="1" vertex="1">
          <mxGeometry x="840" y="880" width="80" height="40" as="geometry" />
        </mxCell>
        <mxCell id="pt_r6s6wknBIZJEBHZ8T-34" style="edgeStyle=orthogonalEdgeStyle;curved=1;rounded=0;orthogonalLoop=1;jettySize=auto;html=1;strokeColor=#CDA2BE;" parent="1" source="tY2yVLHzIpJXAKx0_EAQ-69" target="pt_r6s6wknBIZJEBHZ8T-14" edge="1">
          <mxGeometry relative="1" as="geometry">
            <Array as="points">
              <mxPoint x="940" y="350" />
              <mxPoint x="1140" y="350" />
            </Array>
          </mxGeometry>
        </mxCell>
        <mxCell id="tY2yVLHzIpJXAKx0_EAQ-69" value="(" style="rounded=0;whiteSpace=wrap;html=1;fontFamily=Courier New;fontStyle=1;fillColor=#dae8fc;strokeColor=#6c8ebf;" parent="1" vertex="1">
          <mxGeometry x="920" y="880" width="40" height="40" as="geometry" />
        </mxCell>
        <mxCell id="tY2yVLHzIpJXAKx0_EAQ-73" style="edgeStyle=orthogonalEdgeStyle;curved=1;rounded=0;orthogonalLoop=1;jettySize=auto;html=1;entryX=0.5;entryY=0;entryDx=0;entryDy=0;strokeWidth=3;strokeColor=#70CC80;exitX=0.5;exitY=1;exitDx=0;exitDy=0;" parent="1" source="tY2yVLHzIpJXAKx0_EAQ-70" target="tY2yVLHzIpJXAKx0_EAQ-38" edge="1">
          <mxGeometry relative="1" as="geometry">
            <mxPoint x="1120" y="920" as="sourcePoint" />
            <Array as="points">
              <mxPoint x="1020" y="1000" />
              <mxPoint x="1600" y="1000" />
              <mxPoint x="1600" />
              <mxPoint x="1100" />
            </Array>
          </mxGeometry>
        </mxCell>
        <mxCell id="tY2yVLHzIpJXAKx0_EAQ-70" value="type_list" style="rounded=0;whiteSpace=wrap;html=1;fontFamily=Courier New;fontStyle=1" parent="1" vertex="1">
          <mxGeometry x="960" y="880" width="120" height="40" as="geometry" />
        </mxCell>
        <mxCell id="pt_r6s6wknBIZJEBHZ8T-35" style="edgeStyle=orthogonalEdgeStyle;curved=1;rounded=0;orthogonalLoop=1;jettySize=auto;html=1;entryX=0.5;entryY=1;entryDx=0;entryDy=0;strokeColor=#CDA2BE;" parent="1" source="tY2yVLHzIpJXAKx0_EAQ-45" target="pt_r6s6wknBIZJEBHZ8T-16" edge="1">
          <mxGeometry relative="1" as="geometry" />
        </mxCell>
        <mxCell id="tY2yVLHzIpJXAKx0_EAQ-71" value=")" style="rounded=0;whiteSpace=wrap;html=1;fontFamily=Courier New;fontStyle=1;fillColor=#dae8fc;strokeColor=#6c8ebf;" parent="1" vertex="1">
          <mxGeometry x="1080" y="880" width="40" height="40" as="geometry" />
        </mxCell>
        <mxCell id="tY2yVLHzIpJXAKx0_EAQ-74" value="the symbol is a type being used like &quot;list&quot;" style="shape=note;whiteSpace=wrap;html=1;backgroundOutline=1;darkOpacity=0.05;fillColor=#fff2cc;strokeColor=#d6b656;size=19;" parent="1" vertex="1">
          <mxGeometry x="620" y="750" width="80" height="100" as="geometry" />
        </mxCell>
        <mxCell id="tY2yVLHzIpJXAKx0_EAQ-75" value="the symbol is a type constructor&amp;nbsp; being defined like &quot;pair&quot;" style="shape=note;whiteSpace=wrap;html=1;backgroundOutline=1;darkOpacity=0.05;fillColor=#fff2cc;strokeColor=#d6b656;size=19;" parent="1" vertex="1">
          <mxGeometry x="730" y="310" width="80" height="100" as="geometry" />
        </mxCell>
        <mxCell id="tY2yVLHzIpJXAKx0_EAQ-76" value="#" style="rounded=0;whiteSpace=wrap;html=1;fontFamily=Courier New;fontStyle=1;fillColor=#dae8fc;strokeColor=#6c8ebf;" parent="1" vertex="1">
          <mxGeometry x="1080" y="760" width="40" height="40" as="geometry" />
        </mxCell>
        <mxCell id="tY2yVLHzIpJXAKx0_EAQ-77" value="could be namespaced" style="shape=note;whiteSpace=wrap;html=1;backgroundOutline=1;darkOpacity=0.05;fillColor=#fff2cc;strokeColor=#d6b656;size=19;" parent="1" vertex="1">
          <mxGeometry x="780" y="900" width="80" height="100" as="geometry" />
        </mxCell>
        <mxCell id="pt_r6s6wknBIZJEBHZ8T-1" value="lambda.yaml" style="rounded=0;whiteSpace=wrap;html=1;fontFamily=Courier New;fontStyle=1;fontSize=33;" parent="1" vertex="1">
          <mxGeometry x="280" y="-320" width="280" height="80" as="geometry" />
        </mxCell>
        <mxCell id="pt_r6s6wknBIZJEBHZ8T-2" value="typedef" style="rounded=0;whiteSpace=wrap;html=1;fontFamily=Courier New;fontStyle=1;fontSize=18;" parent="1" vertex="1">
          <mxGeometry x="400" y="-80" width="120" height="40" as="geometry" />
        </mxCell>
        <mxCell id="pt_r6s6wknBIZJEBHZ8T-3" value="list" style="rounded=0;whiteSpace=wrap;html=1;fontFamily=Courier New;fontStyle=1;fontSize=18;" parent="1" vertex="1">
          <mxGeometry x="560" y="-80" width="80" height="40" as="geometry" />
        </mxCell>
        <mxCell id="pt_r6s6wknBIZJEBHZ8T-4" value="(" style="rounded=0;whiteSpace=wrap;html=1;fontFamily=Courier New;fontStyle=1;fontSize=18;" parent="1" vertex="1">
          <mxGeometry x="640" y="-80" width="40" height="40" as="geometry" />
        </mxCell>
        <mxCell id="pt_r6s6wknBIZJEBHZ8T-5" value="#t" style="rounded=0;whiteSpace=wrap;html=1;fontFamily=Courier New;fontStyle=1;fontSize=18;" parent="1" vertex="1">
          <mxGeometry x="680" y="-80" width="40" height="40" as="geometry" />
        </mxCell>
        <mxCell id="pt_r6s6wknBIZJEBHZ8T-6" value=")" style="rounded=0;whiteSpace=wrap;html=1;fontFamily=Courier New;fontStyle=1;fontSize=18;" parent="1" vertex="1">
          <mxGeometry x="720" y="-80" width="40" height="40" as="geometry" />
        </mxCell>
        <mxCell id="pt_r6s6wknBIZJEBHZ8T-8" value="{" style="rounded=0;whiteSpace=wrap;html=1;fontFamily=Courier New;fontStyle=1;fontSize=18;" parent="1" vertex="1">
          <mxGeometry x="800" y="-80" width="40" height="40" as="geometry" />
        </mxCell>
        <mxCell id="pt_r6s6wknBIZJEBHZ8T-9" value="pair" style="rounded=0;whiteSpace=wrap;html=1;fontFamily=Courier New;fontStyle=1;fontSize=18;" parent="1" vertex="1">
          <mxGeometry x="840" y="-80" width="80" height="40" as="geometry" />
        </mxCell>
        <mxCell id="pt_r6s6wknBIZJEBHZ8T-10" value="(" style="rounded=0;whiteSpace=wrap;html=1;fontFamily=Courier New;fontStyle=1;fontSize=18;" parent="1" vertex="1">
          <mxGeometry x="920" y="-80" width="40" height="40" as="geometry" />
        </mxCell>
        <mxCell id="pt_r6s6wknBIZJEBHZ8T-11" value="#t" style="rounded=0;whiteSpace=wrap;html=1;fontFamily=Courier New;fontStyle=1;fontSize=18;" parent="1" vertex="1">
          <mxGeometry x="960" y="-80" width="40" height="40" as="geometry" />
        </mxCell>
        <mxCell id="pt_r6s6wknBIZJEBHZ8T-12" value="," style="rounded=0;whiteSpace=wrap;html=1;fontFamily=Courier New;fontStyle=1;fontSize=18;" parent="1" vertex="1">
          <mxGeometry x="1000" y="-80" width="40" height="40" as="geometry" />
        </mxCell>
        <mxCell id="pt_r6s6wknBIZJEBHZ8T-13" value="list" style="rounded=0;whiteSpace=wrap;html=1;fontFamily=Courier New;fontStyle=1;fontSize=18;" parent="1" vertex="1">
          <mxGeometry x="1040" y="-80" width="80" height="40" as="geometry" />
        </mxCell>
        <mxCell id="pt_r6s6wknBIZJEBHZ8T-14" value="(" style="rounded=0;whiteSpace=wrap;html=1;fontFamily=Courier New;fontStyle=1;fontSize=18;" parent="1" vertex="1">
          <mxGeometry x="1120" y="-80" width="40" height="40" as="geometry" />
        </mxCell>
        <mxCell id="pt_r6s6wknBIZJEBHZ8T-15" value="#t" style="rounded=0;whiteSpace=wrap;html=1;fontFamily=Courier New;fontStyle=1;fontSize=18;" parent="1" vertex="1">
          <mxGeometry x="1160" y="-80" width="40" height="40" as="geometry" />
        </mxCell>
        <mxCell id="pt_r6s6wknBIZJEBHZ8T-16" value=")" style="rounded=0;whiteSpace=wrap;html=1;fontFamily=Courier New;fontStyle=1;fontSize=18;" parent="1" vertex="1">
          <mxGeometry x="1200" y="-80" width="40" height="40" as="geometry" />
        </mxCell>
        <mxCell id="pt_r6s6wknBIZJEBHZ8T-17" value=")" style="rounded=0;whiteSpace=wrap;html=1;fontFamily=Courier New;fontStyle=1;fontSize=18;" parent="1" vertex="1">
          <mxGeometry x="1240" y="-80" width="40" height="40" as="geometry" />
        </mxCell>
        <mxCell id="pt_r6s6wknBIZJEBHZ8T-18" value="|" style="rounded=0;whiteSpace=wrap;html=1;fontFamily=Courier New;fontStyle=1;fontSize=18;" parent="1" vertex="1">
          <mxGeometry x="1280" y="-80" width="40" height="40" as="geometry" />
        </mxCell>
        <mxCell id="pt_r6s6wknBIZJEBHZ8T-19" value="null" style="rounded=0;whiteSpace=wrap;html=1;fontFamily=Courier New;fontStyle=1;fontSize=18;" parent="1" vertex="1">
          <mxGeometry x="1320" y="-80" width="80" height="40" as="geometry" />
        </mxCell>
        <mxCell id="pt_r6s6wknBIZJEBHZ8T-21" value="}" style="rounded=0;whiteSpace=wrap;html=1;fontFamily=Courier New;fontStyle=1;fontSize=18;" parent="1" vertex="1">
          <mxGeometry x="1400" y="-80" width="40" height="40" as="geometry" />
        </mxCell>
        <mxCell id="pt_r6s6wknBIZJEBHZ8T-32" style="edgeStyle=orthogonalEdgeStyle;curved=1;rounded=0;orthogonalLoop=1;jettySize=auto;html=1;entryX=0.5;entryY=1;entryDx=0;entryDy=0;strokeColor=#CDA2BE;" parent="1" source="tY2yVLHzIpJXAKx0_EAQ-37" target="pt_r6s6wknBIZJEBHZ8T-17" edge="1">
          <mxGeometry relative="1" as="geometry">
            <Array as="points">
              <mxPoint x="1180" y="90" />
              <mxPoint x="1260" y="90" />
            </Array>
          </mxGeometry>
        </mxCell>
        <mxCell id="pt_r6s6wknBIZJEBHZ8T-36" style="edgeStyle=orthogonalEdgeStyle;curved=1;rounded=0;orthogonalLoop=1;jettySize=auto;html=1;strokeColor=#CDA2BE;" parent="1" source="tY2yVLHzIpJXAKx0_EAQ-24" target="pt_r6s6wknBIZJEBHZ8T-18" edge="1">
          <mxGeometry relative="1" as="geometry">
            <Array as="points">
              <mxPoint x="940" y="250" />
              <mxPoint x="1300" y="250" />
            </Array>
          </mxGeometry>
        </mxCell>
        <mxCell id="pt_r6s6wknBIZJEBHZ8T-33" style="edgeStyle=orthogonalEdgeStyle;curved=1;rounded=0;orthogonalLoop=1;jettySize=auto;html=1;entryX=0.5;entryY=1;entryDx=0;entryDy=0;strokeColor=#CDA2BE;exitX=0.5;exitY=1;exitDx=0;exitDy=0;" parent="1" source="tY2yVLHzIpJXAKx0_EAQ-67" target="pt_r6s6wknBIZJEBHZ8T-13" edge="1">
          <mxGeometry relative="1" as="geometry">
            <Array as="points">
              <mxPoint x="880" y="130" />
              <mxPoint x="1080" y="130" />
            </Array>
          </mxGeometry>
        </mxCell>
        <mxCell id="pt_r6s6wknBIZJEBHZ8T-40" value="user_type" style="rounded=0;whiteSpace=wrap;html=1;fontFamily=Courier New;fontStyle=1;fillColor=#d5e8d4;strokeColor=#82b366;" parent="1" vertex="1">
          <mxGeometry x="560" y="-120" width="200" height="40" as="geometry" />
        </mxCell>
        <mxCell id="pt_r6s6wknBIZJEBHZ8T-41" value="type_body" style="rounded=0;whiteSpace=wrap;html=1;fontFamily=Courier New;fontStyle=1;fillColor=#d5e8d4;strokeColor=#82b366;" parent="1" vertex="1">
          <mxGeometry x="840" y="-280" width="560" height="40" as="geometry" />
        </mxCell>
        <mxCell id="pt_r6s6wknBIZJEBHZ8T-42" value="type_constructor" style="rounded=0;whiteSpace=wrap;html=1;fontFamily=Courier New;fontStyle=1;fillColor=#d5e8d4;strokeColor=#82b366;" parent="1" vertex="1">
          <mxGeometry x="840" y="-240" width="440" height="40" as="geometry" />
        </mxCell>
        <mxCell id="pt_r6s6wknBIZJEBHZ8T-43" value="type_&lt;br&gt;constructor" style="rounded=0;whiteSpace=wrap;html=1;fontFamily=Courier New;fontStyle=1;fillColor=#d5e8d4;strokeColor=#82b366;" parent="1" vertex="1">
          <mxGeometry x="1320" y="-240" width="80" height="40" as="geometry" />
        </mxCell>
        <mxCell id="pt_r6s6wknBIZJEBHZ8T-44" value="type_list" style="rounded=0;whiteSpace=wrap;html=1;fontFamily=Courier New;fontStyle=1;fillColor=#d5e8d4;strokeColor=#82b366;" parent="1" vertex="1">
          <mxGeometry x="960" y="-200" width="280" height="40" as="geometry" />
        </mxCell>
        <mxCell id="pt_r6s6wknBIZJEBHZ8T-45" value="type_&lt;br&gt;clause" style="rounded=0;whiteSpace=wrap;html=1;fontFamily=Courier New;fontStyle=1;fillColor=#d5e8d4;strokeColor=#82b366;" parent="1" vertex="1">
          <mxGeometry x="960" y="-160" width="40" height="80" as="geometry" />
        </mxCell>
        <mxCell id="pt_r6s6wknBIZJEBHZ8T-46" value="type_function" style="rounded=0;whiteSpace=wrap;html=1;fontFamily=Courier New;fontStyle=1;fillColor=#d5e8d4;strokeColor=#82b366;" parent="1" vertex="1">
          <mxGeometry x="1040" y="-120" width="200" height="40" as="geometry" />
        </mxCell>
        <mxCell id="pt_r6s6wknBIZJEBHZ8T-47" value="{" style="rounded=0;whiteSpace=wrap;html=1;fontFamily=Courier New;fontStyle=1;fontSize=18;" parent="1" vertex="1">
          <mxGeometry x="800" y="-280" width="40" height="40" as="geometry" />
        </mxCell>
        <mxCell id="pt_r6s6wknBIZJEBHZ8T-48" value="pair" style="rounded=0;whiteSpace=wrap;html=1;fontFamily=Courier New;fontStyle=1;fontSize=18;" parent="1" vertex="1">
          <mxGeometry x="840" y="-200" width="80" height="40" as="geometry" />
        </mxCell>
        <mxCell id="pt_r6s6wknBIZJEBHZ8T-49" value="(" style="rounded=0;whiteSpace=wrap;html=1;fontFamily=Courier New;fontStyle=1;fontSize=18;" parent="1" vertex="1">
          <mxGeometry x="920" y="-200" width="40" height="40" as="geometry" />
        </mxCell>
        <mxCell id="pt_r6s6wknBIZJEBHZ8T-56" value=")" style="rounded=0;whiteSpace=wrap;html=1;fontFamily=Courier New;fontStyle=1;fontSize=18;" parent="1" vertex="1">
          <mxGeometry x="1240" y="-200" width="40" height="40" as="geometry" />
        </mxCell>
        <mxCell id="pt_r6s6wknBIZJEBHZ8T-57" value="|" style="rounded=0;whiteSpace=wrap;html=1;fontFamily=Courier New;fontStyle=1;fontSize=18;" parent="1" vertex="1">
          <mxGeometry x="1280" y="-240" width="40" height="40" as="geometry" />
        </mxCell>
        <mxCell id="pt_r6s6wknBIZJEBHZ8T-58" value="null" style="rounded=0;whiteSpace=wrap;html=1;fontFamily=Courier New;fontStyle=1;fontSize=18;" parent="1" vertex="1">
          <mxGeometry x="1320" y="-200" width="80" height="40" as="geometry" />
        </mxCell>
        <mxCell id="pt_r6s6wknBIZJEBHZ8T-59" value="}" style="rounded=0;whiteSpace=wrap;html=1;fontFamily=Courier New;fontStyle=1;fontSize=18;" parent="1" vertex="1">
          <mxGeometry x="1400" y="-280" width="40" height="40" as="geometry" />
        </mxCell>
        <mxCell id="pt_r6s6wknBIZJEBHZ8T-60" value="tc.yaml" style="rounded=0;whiteSpace=wrap;html=1;fontFamily=Courier New;fontStyle=1;fontSize=33;" parent="1" vertex="1">
          <mxGeometry x="280" y="1040" width="280" height="80" as="geometry" />
        </mxCell>
        <mxCell id="pt_r6s6wknBIZJEBHZ8T-61" value="typedef" style="rounded=0;whiteSpace=wrap;html=1;fontFamily=Courier New;fontStyle=1;fontSize=18;" parent="1" vertex="1">
          <mxGeometry x="440" y="1200" width="80" height="40" as="geometry" />
        </mxCell>
        <mxCell id="pt_r6s6wknBIZJEBHZ8T-62" value="list" style="rounded=0;whiteSpace=wrap;html=1;fontFamily=Courier New;fontStyle=1;fontSize=18;" parent="1" vertex="1">
          <mxGeometry x="560" y="1200" width="80" height="40" as="geometry" />
        </mxCell>
        <mxCell id="pt_r6s6wknBIZJEBHZ8T-63" value="(" style="rounded=0;whiteSpace=wrap;html=1;fontFamily=Courier New;fontStyle=1;fontSize=18;" parent="1" vertex="1">
          <mxGeometry x="640" y="1200" width="40" height="40" as="geometry" />
        </mxCell>
        <mxCell id="pt_r6s6wknBIZJEBHZ8T-64" value="#t" style="rounded=0;whiteSpace=wrap;html=1;fontFamily=Courier New;fontStyle=1;fontSize=18;" parent="1" vertex="1">
          <mxGeometry x="680" y="1200" width="40" height="40" as="geometry" />
        </mxCell>
        <mxCell id="pt_r6s6wknBIZJEBHZ8T-65" value=")" style="rounded=0;whiteSpace=wrap;html=1;fontFamily=Courier New;fontStyle=1;fontSize=18;" parent="1" vertex="1">
          <mxGeometry x="720" y="1200" width="40" height="40" as="geometry" />
        </mxCell>
        <mxCell id="pt_r6s6wknBIZJEBHZ8T-66" value="{" style="rounded=0;whiteSpace=wrap;html=1;fontFamily=Courier New;fontStyle=1;fontSize=18;" parent="1" vertex="1">
          <mxGeometry x="800" y="1200" width="40" height="40" as="geometry" />
        </mxCell>
        <mxCell id="pt_r6s6wknBIZJEBHZ8T-67" value="pair" style="rounded=0;whiteSpace=wrap;html=1;fontFamily=Courier New;fontStyle=1;fontSize=18;" parent="1" vertex="1">
          <mxGeometry x="840" y="1200" width="80" height="40" as="geometry" />
        </mxCell>
        <mxCell id="pt_r6s6wknBIZJEBHZ8T-68" value="(" style="rounded=0;whiteSpace=wrap;html=1;fontFamily=Courier New;fontStyle=1;fontSize=18;" parent="1" vertex="1">
          <mxGeometry x="920" y="1200" width="40" height="40" as="geometry" />
        </mxCell>
        <mxCell id="pt_r6s6wknBIZJEBHZ8T-69" value="#t" style="rounded=0;whiteSpace=wrap;html=1;fontFamily=Courier New;fontStyle=1;fontSize=18;" parent="1" vertex="1">
          <mxGeometry x="960" y="1200" width="40" height="40" as="geometry" />
        </mxCell>
        <mxCell id="pt_r6s6wknBIZJEBHZ8T-70" value="," style="rounded=0;whiteSpace=wrap;html=1;fontFamily=Courier New;fontStyle=1;fontSize=18;" parent="1" vertex="1">
          <mxGeometry x="1000" y="1200" width="40" height="40" as="geometry" />
        </mxCell>
        <mxCell id="pt_r6s6wknBIZJEBHZ8T-71" value="list" style="rounded=0;whiteSpace=wrap;html=1;fontFamily=Courier New;fontStyle=1;fontSize=18;" parent="1" vertex="1">
          <mxGeometry x="1040" y="1200" width="80" height="40" as="geometry" />
        </mxCell>
        <mxCell id="pt_r6s6wknBIZJEBHZ8T-72" value="(" style="rounded=0;whiteSpace=wrap;html=1;fontFamily=Courier New;fontStyle=1;fontSize=18;" parent="1" vertex="1">
          <mxGeometry x="1120" y="1200" width="40" height="40" as="geometry" />
        </mxCell>
        <mxCell id="pt_r6s6wknBIZJEBHZ8T-73" value="#t" style="rounded=0;whiteSpace=wrap;html=1;fontFamily=Courier New;fontStyle=1;fontSize=18;" parent="1" vertex="1">
          <mxGeometry x="1160" y="1200" width="40" height="40" as="geometry" />
        </mxCell>
        <mxCell id="pt_r6s6wknBIZJEBHZ8T-74" value=")" style="rounded=0;whiteSpace=wrap;html=1;fontFamily=Courier New;fontStyle=1;fontSize=18;" parent="1" vertex="1">
          <mxGeometry x="1200" y="1200" width="40" height="40" as="geometry" />
        </mxCell>
        <mxCell id="pt_r6s6wknBIZJEBHZ8T-75" value=")" style="rounded=0;whiteSpace=wrap;html=1;fontFamily=Courier New;fontStyle=1;fontSize=18;" parent="1" vertex="1">
          <mxGeometry x="1240" y="1200" width="40" height="40" as="geometry" />
        </mxCell>
        <mxCell id="pt_r6s6wknBIZJEBHZ8T-76" value="|" style="rounded=0;whiteSpace=wrap;html=1;fontFamily=Courier New;fontStyle=1;fontSize=18;" parent="1" vertex="1">
          <mxGeometry x="1280" y="1200" width="40" height="40" as="geometry" />
        </mxCell>
        <mxCell id="pt_r6s6wknBIZJEBHZ8T-77" value="null" style="rounded=0;whiteSpace=wrap;html=1;fontFamily=Courier New;fontStyle=1;fontSize=18;" parent="1" vertex="1">
          <mxGeometry x="1320" y="1200" width="80" height="40" as="geometry" />
        </mxCell>
        <mxCell id="pt_r6s6wknBIZJEBHZ8T-78" value="}" style="rounded=0;whiteSpace=wrap;html=1;fontFamily=Courier New;fontStyle=1;fontSize=18;" parent="1" vertex="1">
          <mxGeometry x="1400" y="1200" width="40" height="40" as="geometry" />
        </mxCell>
        <mxCell id="pt_r6s6wknBIZJEBHZ8T-79" value="type" style="rounded=0;whiteSpace=wrap;html=1;fontFamily=Courier New;fontStyle=1;fillColor=#d5e8d4;strokeColor=#82b366;" parent="1" vertex="1">
          <mxGeometry x="920" y="1360" width="80" height="40" as="geometry" />
        </mxCell>
        <mxCell id="pt_r6s6wknBIZJEBHZ8T-80" value="function" style="rounded=0;whiteSpace=wrap;html=1;fontFamily=Courier New;fontStyle=1;fillColor=#d5e8d4;strokeColor=#82b366;" parent="1" vertex="1">
          <mxGeometry x="520" y="1520" width="80" height="40" as="geometry" />
        </mxCell>
        <mxCell id="pt_r6s6wknBIZJEBHZ8T-81" value="type" style="rounded=0;whiteSpace=wrap;html=1;fontFamily=Courier New;fontStyle=1" parent="1" vertex="1">
          <mxGeometry x="600" y="1520" width="80" height="40" as="geometry" />
        </mxCell>
        <mxCell id="pt_r6s6wknBIZJEBHZ8T-82" value="type" style="rounded=0;whiteSpace=wrap;html=1;fontFamily=Courier New;fontStyle=1" parent="1" vertex="1">
          <mxGeometry x="680" y="1520" width="80" height="40" as="geometry" />
        </mxCell>
        <mxCell id="pt_r6s6wknBIZJEBHZ8T-85" value="pair" style="rounded=0;whiteSpace=wrap;html=1;fontFamily=Courier New;fontStyle=1;fillColor=#d5e8d4;strokeColor=#82b366;" parent="1" vertex="1">
          <mxGeometry x="520" y="1600" width="80" height="40" as="geometry" />
        </mxCell>
        <mxCell id="pt_r6s6wknBIZJEBHZ8T-86" value="type" style="rounded=0;whiteSpace=wrap;html=1;fontFamily=Courier New;fontStyle=1" parent="1" vertex="1">
          <mxGeometry x="600" y="1600" width="80" height="40" as="geometry" />
        </mxCell>
        <mxCell id="pt_r6s6wknBIZJEBHZ8T-87" value="type" style="rounded=0;whiteSpace=wrap;html=1;fontFamily=Courier New;fontStyle=1" parent="1" vertex="1">
          <mxGeometry x="680" y="1600" width="80" height="40" as="geometry" />
        </mxCell>
        <mxCell id="pt_r6s6wknBIZJEBHZ8T-88" value="user_type" style="rounded=0;whiteSpace=wrap;html=1;fontFamily=Courier New;fontStyle=1;fillColor=#d5e8d4;strokeColor=#82b366;" parent="1" vertex="1">
          <mxGeometry x="520" y="1680" width="80" height="40" as="geometry" />
        </mxCell>
        <mxCell id="pt_r6s6wknBIZJEBHZ8T-90" value="user_type_args" style="rounded=0;whiteSpace=wrap;html=1;fontFamily=Courier New;fontStyle=1" parent="1" vertex="1">
          <mxGeometry x="680" y="1680" width="120" height="40" as="geometry" />
        </mxCell>
        <mxCell id="pt_r6s6wknBIZJEBHZ8T-91" value="symbol" style="rounded=0;whiteSpace=wrap;html=1;fontFamily=Courier New;fontStyle=1;fillColor=#dae8fc;strokeColor=#6c8ebf;" parent="1" vertex="1">
          <mxGeometry x="600" y="1680" width="80" height="40" as="geometry" />
        </mxCell>
        <mxCell id="pt_r6s6wknBIZJEBHZ8T-92" value="nsid" style="rounded=0;whiteSpace=wrap;html=1;fontFamily=Courier New;fontStyle=1;fillColor=#dae8fc;strokeColor=#6c8ebf;" parent="1" vertex="1">
          <mxGeometry x="800" y="1680" width="40" height="40" as="geometry" />
        </mxCell>
        <mxCell id="pt_r6s6wknBIZJEBHZ8T-93" value="user_type_args" style="rounded=0;whiteSpace=wrap;html=1;fontFamily=Courier New;fontStyle=1;fillColor=#d5e8d4;strokeColor=#82b366;" parent="1" vertex="1">
          <mxGeometry x="520" y="1760" width="120" height="40" as="geometry" />
        </mxCell>
        <mxCell id="pt_r6s6wknBIZJEBHZ8T-94" value="NULL" style="rounded=0;whiteSpace=wrap;html=1;fontFamily=Courier New;fontStyle=1;fillColor=#dae8fc;strokeColor=#6c8ebf;" parent="1" vertex="1">
          <mxGeometry x="640" y="1760" width="80" height="40" as="geometry" />
        </mxCell>
        <mxCell id="pt_r6s6wknBIZJEBHZ8T-96" value="var" style="rounded=0;whiteSpace=wrap;html=1;fontFamily=Courier New;fontStyle=1;fillColor=#d5e8d4;strokeColor=#82b366;" parent="1" vertex="1">
          <mxGeometry x="520" y="1880" width="40" height="40" as="geometry" />
        </mxCell>
        <mxCell id="pt_r6s6wknBIZJEBHZ8T-97" value="#type_symbol" style="rounded=0;whiteSpace=wrap;html=1;fontFamily=Courier New;fontStyle=1;fillColor=#dae8fc;strokeColor=#6c8ebf;" parent="1" vertex="1">
          <mxGeometry x="560" y="1880" width="120" height="40" as="geometry" />
        </mxCell>
        <mxCell id="pt_r6s6wknBIZJEBHZ8T-98" value="int" style="rounded=0;whiteSpace=wrap;html=1;fontFamily=Courier New;fontStyle=1;fillColor=#dae8fc;strokeColor=#6c8ebf;" parent="1" vertex="1">
          <mxGeometry x="680" y="1880" width="40" height="40" as="geometry" />
        </mxCell>
        <mxCell id="pt_r6s6wknBIZJEBHZ8T-99" value="type" style="rounded=0;whiteSpace=wrap;html=1;fontFamily=Courier New;fontStyle=1" parent="1" vertex="1">
          <mxGeometry x="720" y="1880" width="80" height="40" as="geometry" />
        </mxCell>
        <mxCell id="pt_r6s6wknBIZJEBHZ8T-100" value="function" style="rounded=0;whiteSpace=wrap;html=1;fontFamily=Courier New;fontStyle=1" parent="1" vertex="1">
          <mxGeometry x="1000" y="1480" width="120" height="40" as="geometry" />
        </mxCell>
        <mxCell id="pt_r6s6wknBIZJEBHZ8T-101" value="pair" style="rounded=0;whiteSpace=wrap;html=1;fontFamily=Courier New;fontStyle=1" parent="1" vertex="1">
          <mxGeometry x="1000" y="1520" width="120" height="40" as="geometry" />
        </mxCell>
        <mxCell id="pt_r6s6wknBIZJEBHZ8T-102" value="var" style="rounded=0;whiteSpace=wrap;html=1;fontFamily=Courier New;fontStyle=1" parent="1" vertex="1">
          <mxGeometry x="1000" y="1560" width="120" height="40" as="geometry" />
        </mxCell>
        <mxCell id="pt_r6s6wknBIZJEBHZ8T-104" value="smallint_type" style="rounded=0;whiteSpace=wrap;html=1;fontFamily=Courier New;fontStyle=1;fillColor=#dae8fc;strokeColor=#6c8ebf;" parent="1" vertex="1">
          <mxGeometry x="1000" y="1360" width="120" height="40" as="geometry" />
        </mxCell>
        <mxCell id="pt_r6s6wknBIZJEBHZ8T-105" value="bigint_type" style="rounded=0;whiteSpace=wrap;html=1;fontFamily=Courier New;fontStyle=1;fillColor=#dae8fc;strokeColor=#6c8ebf;" parent="1" vertex="1">
          <mxGeometry x="1000" y="1400" width="120" height="40" as="geometry" />
        </mxCell>
        <mxCell id="pt_r6s6wknBIZJEBHZ8T-106" value="char_type" style="rounded=0;whiteSpace=wrap;html=1;fontFamily=Courier New;fontStyle=1;fillColor=#dae8fc;strokeColor=#6c8ebf;" parent="1" vertex="1">
          <mxGeometry x="1000" y="1440" width="120" height="40" as="geometry" />
        </mxCell>
        <mxCell id="pt_r6s6wknBIZJEBHZ8T-107" value="unknown" style="rounded=0;whiteSpace=wrap;html=1;fontFamily=Courier New;fontStyle=1" parent="1" vertex="1">
          <mxGeometry x="1000" y="1600" width="120" height="40" as="geometry" />
        </mxCell>
        <mxCell id="pt_r6s6wknBIZJEBHZ8T-108" value="symbol" style="rounded=0;whiteSpace=wrap;html=1;fontFamily=Courier New;fontStyle=1;fillColor=#dae8fc;strokeColor=#6c8ebf;" parent="1" vertex="1">
          <mxGeometry x="1120" y="1600" width="80" height="40" as="geometry" />
        </mxCell>
        <mxCell id="pt_r6s6wknBIZJEBHZ8T-109" value="user_type" style="rounded=0;whiteSpace=wrap;html=1;fontFamily=Courier New;fontStyle=1" parent="1" vertex="1">
          <mxGeometry x="1000" y="1640" width="120" height="40" as="geometry" />
        </mxCell>
        <mxCell id="pt_r6s6wknBIZJEBHZ8T-110" value="tuple" style="rounded=0;whiteSpace=wrap;html=1;fontFamily=Courier New;fontStyle=1" parent="1" vertex="1">
          <mxGeometry x="1000" y="1680" width="120" height="40" as="geometry" />
        </mxCell>
        <mxCell id="pt_r6s6wknBIZJEBHZ8T-111" value="type_array" style="rounded=0;whiteSpace=wrap;html=1;fontFamily=Courier New;fontStyle=1" parent="1" vertex="1">
          <mxGeometry x="1120" y="1680" width="120" height="40" as="geometry" />
        </mxCell>
        <mxCell id="pt_r6s6wknBIZJEBHZ8T-114" value="namespaces" style="rounded=0;whiteSpace=wrap;html=1;fontFamily=Courier New;fontStyle=1" parent="1" vertex="1">
          <mxGeometry x="1000" y="1720" width="120" height="40" as="geometry" />
        </mxCell>
        <mxCell id="pt_r6s6wknBIZJEBHZ8T-115" value="env" style="rounded=0;whiteSpace=wrap;html=1;fontFamily=Courier New;fontStyle=1" parent="1" vertex="1">
          <mxGeometry x="1000" y="1760" width="120" height="40" as="geometry" />
        </mxCell>
        <mxCell id="pt_r6s6wknBIZJEBHZ8T-116" value="nsid" style="rounded=0;whiteSpace=wrap;html=1;fontFamily=Courier New;fontStyle=1;fillColor=#dae8fc;strokeColor=#6c8ebf;" parent="1" vertex="1">
          <mxGeometry x="1000" y="1800" width="120" height="40" as="geometry" />
        </mxCell>
        <mxCell id="pt_r6s6wknBIZJEBHZ8T-118" value="env" style="rounded=0;whiteSpace=wrap;html=1;fontFamily=Courier New;fontStyle=1;fillColor=#d5e8d4;strokeColor=#82b366;" parent="1" vertex="1">
          <mxGeometry x="520" y="1440" width="40" height="40" as="geometry" />
        </mxCell>
        <mxCell id="pt_r6s6wknBIZJEBHZ8T-119" value="type_table" style="rounded=0;whiteSpace=wrap;html=1;fontFamily=Courier New;fontStyle=1" parent="1" vertex="1">
          <mxGeometry x="560" y="1440" width="80" height="40" as="geometry" />
        </mxCell>
        <mxCell id="pt_r6s6wknBIZJEBHZ8T-120" value="user_type_table" style="rounded=0;whiteSpace=wrap;html=1;fontFamily=Courier New;fontStyle=1" parent="1" vertex="1">
          <mxGeometry x="640" y="1440" width="120" height="40" as="geometry" />
        </mxCell>
        <mxCell id="pt_r6s6wknBIZJEBHZ8T-153" style="edgeStyle=orthogonalEdgeStyle;curved=1;rounded=0;orthogonalLoop=1;jettySize=auto;html=1;entryX=0.5;entryY=1;entryDx=0;entryDy=0;strokeWidth=3;strokeColor=#70CC80;" parent="1" source="pt_r6s6wknBIZJEBHZ8T-121" target="pt_r6s6wknBIZJEBHZ8T-118" edge="1">
          <mxGeometry relative="1" as="geometry">
            <Array as="points">
              <mxPoint x="780" y="1510" />
              <mxPoint x="540" y="1510" />
            </Array>
          </mxGeometry>
        </mxCell>
        <mxCell id="pt_r6s6wknBIZJEBHZ8T-121" value="env" style="rounded=0;whiteSpace=wrap;html=1;fontFamily=Courier New;fontStyle=1" parent="1" vertex="1">
          <mxGeometry x="760" y="1440" width="40" height="40" as="geometry" />
        </mxCell>
        <mxCell id="pt_r6s6wknBIZJEBHZ8T-122" value="ng" style="rounded=0;whiteSpace=wrap;html=1;fontFamily=Courier New;fontStyle=1;fillColor=#d5e8d4;strokeColor=#82b366;" parent="1" vertex="1">
          <mxGeometry x="520" y="1360" width="40" height="40" as="geometry" />
        </mxCell>
        <mxCell id="pt_r6s6wknBIZJEBHZ8T-123" value="type_table" style="rounded=0;whiteSpace=wrap;html=1;fontFamily=Courier New;fontStyle=1" parent="1" vertex="1">
          <mxGeometry x="560" y="1360" width="80" height="40" as="geometry" />
        </mxCell>
        <mxCell id="pt_r6s6wknBIZJEBHZ8T-152" style="edgeStyle=orthogonalEdgeStyle;curved=1;rounded=0;orthogonalLoop=1;jettySize=auto;html=1;entryX=0.5;entryY=1;entryDx=0;entryDy=0;strokeWidth=3;strokeColor=#70CC80;" parent="1" source="pt_r6s6wknBIZJEBHZ8T-124" target="pt_r6s6wknBIZJEBHZ8T-122" edge="1">
          <mxGeometry relative="1" as="geometry">
            <Array as="points">
              <mxPoint x="660" y="1430" />
              <mxPoint x="540" y="1430" />
            </Array>
          </mxGeometry>
        </mxCell>
        <mxCell id="pt_r6s6wknBIZJEBHZ8T-124" value="ng" style="rounded=0;whiteSpace=wrap;html=1;fontFamily=Courier New;fontStyle=1" parent="1" vertex="1">
          <mxGeometry x="640" y="1360" width="40" height="40" as="geometry" />
        </mxCell>
        <mxCell id="pt_r6s6wknBIZJEBHZ8T-125" value="type_array" style="rounded=0;whiteSpace=wrap;html=1;fontFamily=Courier New;fontStyle=1;fillColor=#d5e8d4;strokeColor=#82b366;" parent="1" vertex="1">
          <mxGeometry x="520" y="1960" width="120" height="40" as="geometry" />
        </mxCell>
        <mxCell id="pt_r6s6wknBIZJEBHZ8T-126" value="type" style="rounded=0;whiteSpace=wrap;html=1;fontFamily=Courier New;fontStyle=1" parent="1" vertex="1">
          <mxGeometry x="680" y="1960" width="80" height="40" as="geometry" />
        </mxCell>
        <mxCell id="pt_r6s6wknBIZJEBHZ8T-127" value="[" style="rounded=0;whiteSpace=wrap;html=1;fontFamily=Courier New;fontStyle=1" parent="1" vertex="1">
          <mxGeometry x="640" y="1960" width="40" height="40" as="geometry" />
        </mxCell>
        <mxCell id="pt_r6s6wknBIZJEBHZ8T-128" value="]" style="rounded=0;whiteSpace=wrap;html=1;fontFamily=Courier New;fontStyle=1" parent="1" vertex="1">
          <mxGeometry x="760" y="1960" width="40" height="40" as="geometry" />
        </mxCell>
        <mxCell id="pt_r6s6wknBIZJEBHZ8T-129" value="namespace_array" style="rounded=0;whiteSpace=wrap;html=1;fontFamily=Courier New;fontStyle=1;fillColor=#d5e8d4;strokeColor=#82b366;" parent="1" vertex="1">
          <mxGeometry x="520" y="2040" width="120" height="40" as="geometry" />
        </mxCell>
        <mxCell id="pt_r6s6wknBIZJEBHZ8T-130" value="type" style="rounded=0;whiteSpace=wrap;html=1;fontFamily=Courier New;fontStyle=1" parent="1" vertex="1">
          <mxGeometry x="680" y="2040" width="80" height="40" as="geometry" />
        </mxCell>
        <mxCell id="pt_r6s6wknBIZJEBHZ8T-131" value="[" style="rounded=0;whiteSpace=wrap;html=1;fontFamily=Courier New;fontStyle=1" parent="1" vertex="1">
          <mxGeometry x="640" y="2040" width="40" height="40" as="geometry" />
        </mxCell>
        <mxCell id="pt_r6s6wknBIZJEBHZ8T-132" value="]" style="rounded=0;whiteSpace=wrap;html=1;fontFamily=Courier New;fontStyle=1" parent="1" vertex="1">
          <mxGeometry x="760" y="2040" width="40" height="40" as="geometry" />
        </mxCell>
        <mxCell id="pt_r6s6wknBIZJEBHZ8T-133" value="env ???" style="rounded=0;whiteSpace=wrap;html=1;fontFamily=Courier New;fontStyle=1;fillColor=#f8cecc;strokeColor=#b85450;" parent="1" vertex="1">
          <mxGeometry x="680" y="2080" width="80" height="40" as="geometry" />
        </mxCell>
        <mxCell id="pt_r6s6wknBIZJEBHZ8T-134" value="type_table" style="rounded=0;whiteSpace=wrap;html=1;fontFamily=Courier New;fontStyle=1;fillColor=#d5e8d4;strokeColor=#82b366;" parent="1" vertex="1">
          <mxGeometry x="920" y="1880" width="120" height="40" as="geometry" />
        </mxCell>
        <mxCell id="pt_r6s6wknBIZJEBHZ8T-135" value="type" style="rounded=0;whiteSpace=wrap;html=1;fontFamily=Courier New;fontStyle=1" parent="1" vertex="1">
          <mxGeometry x="1200" y="1880" width="80" height="40" as="geometry" />
        </mxCell>
        <mxCell id="pt_r6s6wknBIZJEBHZ8T-136" value="{" style="rounded=0;whiteSpace=wrap;html=1;fontFamily=Courier New;fontStyle=1" parent="1" vertex="1">
          <mxGeometry x="1040" y="1880" width="40" height="40" as="geometry" />
        </mxCell>
        <mxCell id="pt_r6s6wknBIZJEBHZ8T-137" value="}" style="rounded=0;whiteSpace=wrap;html=1;fontFamily=Courier New;fontStyle=1" parent="1" vertex="1">
          <mxGeometry x="1280" y="1880" width="40" height="40" as="geometry" />
        </mxCell>
        <mxCell id="pt_r6s6wknBIZJEBHZ8T-138" value="symbol" style="rounded=0;whiteSpace=wrap;html=1;fontFamily=Courier New;fontStyle=1;fillColor=#dae8fc;strokeColor=#6c8ebf;" parent="1" vertex="1">
          <mxGeometry x="1080" y="1880" width="80" height="40" as="geometry" />
        </mxCell>
        <mxCell id="pt_r6s6wknBIZJEBHZ8T-139" value="user_type_table" style="rounded=0;whiteSpace=wrap;html=1;fontFamily=Courier New;fontStyle=1;fillColor=#d5e8d4;strokeColor=#82b366;" parent="1" vertex="1">
          <mxGeometry x="920" y="1960" width="120" height="40" as="geometry" />
        </mxCell>
        <mxCell id="pt_r6s6wknBIZJEBHZ8T-140" value="user_type" style="rounded=0;whiteSpace=wrap;html=1;fontFamily=Courier New;fontStyle=1" parent="1" vertex="1">
          <mxGeometry x="1200" y="1960" width="80" height="40" as="geometry" />
        </mxCell>
        <mxCell id="pt_r6s6wknBIZJEBHZ8T-141" value="{" style="rounded=0;whiteSpace=wrap;html=1;fontFamily=Courier New;fontStyle=1" parent="1" vertex="1">
          <mxGeometry x="1040" y="1960" width="40" height="40" as="geometry" />
        </mxCell>
        <mxCell id="pt_r6s6wknBIZJEBHZ8T-142" value="}" style="rounded=0;whiteSpace=wrap;html=1;fontFamily=Courier New;fontStyle=1" parent="1" vertex="1">
          <mxGeometry x="1280" y="1960" width="40" height="40" as="geometry" />
        </mxCell>
        <mxCell id="pt_r6s6wknBIZJEBHZ8T-143" value="symbol" style="rounded=0;whiteSpace=wrap;html=1;fontFamily=Courier New;fontStyle=1;fillColor=#dae8fc;strokeColor=#6c8ebf;" parent="1" vertex="1">
          <mxGeometry x="1080" y="1960" width="80" height="40" as="geometry" />
        </mxCell>
        <mxCell id="pt_r6s6wknBIZJEBHZ8T-144" value="user_type" style="rounded=0;whiteSpace=wrap;html=1;fontFamily=Courier New;fontStyle=1;fillColor=#d5e8d4;strokeColor=#82b366;" parent="1" vertex="1">
          <mxGeometry x="560" y="1160" width="200" height="40" as="geometry" />
        </mxCell>
        <mxCell id="pt_r6s6wknBIZJEBHZ8T-145" value="function" style="rounded=0;whiteSpace=wrap;html=1;fontFamily=Courier New;fontStyle=1;fillColor=#d5e8d4;strokeColor=#82b366;" parent="1" vertex="1">
          <mxGeometry x="840" y="1160" width="440" height="40" as="geometry" />
        </mxCell>
        <mxCell id="pt_r6s6wknBIZJEBHZ8T-146" value="user_type" style="rounded=0;whiteSpace=wrap;html=1;fontFamily=Courier New;fontStyle=1;fillColor=#d5e8d4;strokeColor=#82b366;" parent="1" vertex="1">
          <mxGeometry x="1040" y="1240" width="200" height="40" as="geometry" />
        </mxCell>
        <mxCell id="pt_r6s6wknBIZJEBHZ8T-147" value="user_type" style="rounded=0;whiteSpace=wrap;html=1;fontFamily=Courier New;fontStyle=1;fillColor=#d5e8d4;strokeColor=#82b366;" parent="1" vertex="1">
          <mxGeometry x="1320" y="1240" width="80" height="40" as="geometry" />
        </mxCell>
        <mxCell id="pt_r6s6wknBIZJEBHZ8T-148" value="type" style="rounded=0;whiteSpace=wrap;html=1;fontFamily=Courier New;fontStyle=1" parent="1" vertex="1">
          <mxGeometry x="640" y="1800" width="80" height="40" as="geometry" />
        </mxCell>
        <mxCell id="pt_r6s6wknBIZJEBHZ8T-154" style="edgeStyle=orthogonalEdgeStyle;curved=1;rounded=0;orthogonalLoop=1;jettySize=auto;html=1;entryX=0.5;entryY=1;entryDx=0;entryDy=0;strokeWidth=3;strokeColor=#70CC80;" parent="1" source="pt_r6s6wknBIZJEBHZ8T-149" target="pt_r6s6wknBIZJEBHZ8T-93" edge="1">
          <mxGeometry relative="1" as="geometry">
            <Array as="points">
              <mxPoint x="780" y="1870" />
              <mxPoint x="580" y="1870" />
            </Array>
          </mxGeometry>
        </mxCell>
        <mxCell id="pt_r6s6wknBIZJEBHZ8T-149" value="user_type_args" style="rounded=0;whiteSpace=wrap;html=1;fontFamily=Courier New;fontStyle=1" parent="1" vertex="1">
          <mxGeometry x="720" y="1800" width="120" height="40" as="geometry" />
        </mxCell>
        <mxCell id="pt_r6s6wknBIZJEBHZ8T-150" value="var" style="rounded=0;whiteSpace=wrap;html=1;fontFamily=Courier New;fontStyle=1;fillColor=#d5e8d4;strokeColor=#82b366;" parent="1" vertex="1">
          <mxGeometry x="960" y="1240" width="40" height="40" as="geometry" />
        </mxCell>
        <mxCell id="pt_r6s6wknBIZJEBHZ8T-151" value="namespace_array" style="rounded=0;whiteSpace=wrap;html=1;fontFamily=Courier New;fontStyle=1" parent="1" vertex="1">
          <mxGeometry x="1120" y="1720" width="120" height="40" as="geometry" />
        </mxCell>
        <mxCell id="pt_r6s6wknBIZJEBHZ8T-155" value="-&amp;gt;" style="rounded=0;whiteSpace=wrap;html=1;fontFamily=Courier New;fontStyle=1" parent="1" vertex="1">
          <mxGeometry x="1160" y="1880" width="40" height="40" as="geometry" />
        </mxCell>
        <mxCell id="pt_r6s6wknBIZJEBHZ8T-156" value="-&amp;gt;" style="rounded=0;whiteSpace=wrap;html=1;fontFamily=Courier New;fontStyle=1" parent="1" vertex="1">
          <mxGeometry x="1160" y="1960" width="40" height="40" as="geometry" />
        </mxCell>
        <mxCell id="_PlnM-ENmWtIeLVSB74j-1" value="type_&lt;br&gt;clause" style="rounded=0;whiteSpace=wrap;html=1;fontFamily=Courier New;fontStyle=1;fillColor=#d5e8d4;strokeColor=#82b366;" vertex="1" parent="1">
          <mxGeometry x="1040" y="-160" width="200" height="40" as="geometry" />
        </mxCell>
        <mxCell id="_PlnM-ENmWtIeLVSB74j-2" value="" style="edgeStyle=orthogonalEdgeStyle;curved=1;rounded=0;orthogonalLoop=1;jettySize=auto;html=1;entryX=0.5;entryY=1;entryDx=0;entryDy=0;strokeColor=#CDA2BE;" edge="1" parent="1" source="tY2yVLHzIpJXAKx0_EAQ-71" target="tY2yVLHzIpJXAKx0_EAQ-45">
          <mxGeometry relative="1" as="geometry">
            <mxPoint x="1120" y="900" as="sourcePoint" />
            <mxPoint x="1220" y="-40" as="targetPoint" />
          </mxGeometry>
        </mxCell>
        <mxCell id="tY2yVLHzIpJXAKx0_EAQ-45" value="type_constructor_type" style="rounded=0;whiteSpace=wrap;html=1;fontFamily=Courier New;fontStyle=1;fillColor=#d5e8d4;strokeColor=#82b366;" parent="1" vertex="1">
          <mxGeometry x="1120" y="280" width="160" height="40" as="geometry" />
        </mxCell>
        <mxCell id="_PlnM-ENmWtIeLVSB74j-3" value="" style="edgeStyle=orthogonalEdgeStyle;curved=1;rounded=0;orthogonalLoop=1;jettySize=auto;html=1;entryX=0.5;entryY=1;entryDx=0;entryDy=0;strokeColor=#CDA2BE;" edge="1" parent="1" source="tY2yVLHzIpJXAKx0_EAQ-67" target="tY2yVLHzIpJXAKx0_EAQ-53">
          <mxGeometry relative="1" as="geometry">
            <mxPoint x="920" y="860" as="sourcePoint" />
            <mxPoint x="1360" y="-40" as="targetPoint" />
          </mxGeometry>
        </mxCell>
        <mxCell id="tY2yVLHzIpJXAKx0_EAQ-53" value="type_clause" style="rounded=0;whiteSpace=wrap;html=1;fontFamily=Courier New;fontStyle=1;fillColor=#d5e8d4;strokeColor=#82b366;" parent="1" vertex="1">
          <mxGeometry x="1280" y="520" width="120" height="40" as="geometry" />
        </mxCell>
      </root>
    </mxGraphModel>
  </diagram>
</mxfile>
